<?xml version="1.0" standalone="no"?>
<!DOCTYPE svg PUBLIC "-//W3C//DTD SVG 20010904//EN"
 "http://www.w3.org/TR/2001/REC-SVG-20010904/DTD/svg10.dtd">
<svg version="1.0" xmlns="http://www.w3.org/2000/svg"
 width="60" height="60" viewBox="0 0 500.000000 500.000000"
 preserveAspectRatio="xMidYMid meet">

<g transform="translate(0.000000,500.000000) scale(0.100000,-0.100000)"
fill="#000000" stroke="none">
<path d="M920 3832 c0 -10 13 -28 30 -40 69 -51 65 -3 65 -862 0 -746 -1 -776
-19 -814 -11 -22 -32 -46 -48 -55 -15 -9 -28 -24 -28 -33 0 -17 18 -18 245
-18 227 0 245 1 245 18 0 9 -13 24 -29 34 -64 36 -66 47 -69 432 l-3 350 73
74 73 74 76 -5 c87 -6 119 -20 170 -74 55 -57 78 -105 189 -378 178 -440 214
-498 325 -530 46 -14 82 -16 160 -12 115 6 135 12 135 38 0 15 -7 19 -39 19
-79 0 -108 48 -261 425 -55 137 -114 274 -130 304 -70 131 -160 213 -265 242
-22 7 -100 14 -174 18 l-133 6 328 331 c351 353 365 364 508 410 56 17 72 27
74 43 3 21 2 21 -204 19 -213 -3 -246 -10 -182 -39 103 -46 73 -91 -372 -547
l-345 -354 -5 324 c-7 452 2 521 70 562 17 9 30 26 30 37 0 18 -9 19 -245 19
-230 0 -245 -1 -245 -18z"/>
<path d="M2430 3120 c0 -11 8 -23 18 -27 41 -14 81 -55 99 -100 17 -45 18 -94
18 -788 0 -829 1 -811 -66 -869 -22 -18 -39 -38 -39 -44 0 -9 51 -12 180 -12
171 0 180 1 180 19 0 13 -11 23 -36 31 -58 19 -110 79 -136 157 -22 68 -23 72
-26 702 l-3 635 183 -231 c101 -127 379 -478 618 -781 338 -428 440 -551 458
-551 l22 -1 0 843 c0 705 2 852 14 892 15 49 50 95 73 95 7 0 13 11 13 25 l0
25 -177 -2 c-158 -3 -178 -5 -181 -20 -2 -12 8 -22 35 -33 77 -33 123 -98 150
-214 12 -52 16 -169 20 -566 3 -275 3 -513 2 -530 -4 -27 -56 35 -563 668
l-558 697 -149 0 c-143 0 -149 -1 -149 -20z"/>
</g>
</svg>
